<?xml version="1.0" encoding="UTF-8" standalone="no"?>
<!-- Generator: Adobe Illustrator 18.0.0, SVG Export Plug-In . SVG Version: 6.00 Build 0)  -->

<svg
   xmlns:dc="http://purl.org/dc/elements/1.1/"
   xmlns:cc="http://creativecommons.org/ns#"
   xmlns:rdf="http://www.w3.org/1999/02/22-rdf-syntax-ns#"
   xmlns:svg="http://www.w3.org/2000/svg"
   xmlns="http://www.w3.org/2000/svg"
   xmlns:sodipodi="http://sodipodi.sourceforge.net/DTD/sodipodi-0.dtd"
   xmlns:inkscape="http://www.inkscape.org/namespaces/inkscape"
   version="1.1"
   id="Layer_1"
   x="0px"
   y="0px"
   viewBox="0 0 255 135"
   enable-background="new 0 0 311 211"
   xml:space="preserve"
   sodipodi:docname="logo_cssp.svg"
   width="255"
   height="135"
   inkscape:version="0.92.4 (5da689c313, 2019-01-14)"><metadata
   id="metadata4566"><rdf:RDF><cc:Work
       rdf:about=""><dc:format>image/svg+xml</dc:format><dc:type
         rdf:resource="http://purl.org/dc/dcmitype/StillImage" /><dc:title></dc:title></cc:Work></rdf:RDF></metadata><defs
   id="defs4564" /><sodipodi:namedview
   pagecolor="#ffffff"
   bordercolor="#666666"
   borderopacity="1"
   objecttolerance="10"
   gridtolerance="10"
   guidetolerance="10"
   inkscape:pageopacity="0"
   inkscape:pageshadow="2"
   inkscape:window-width="1920"
   inkscape:window-height="1017"
   id="namedview4562"
   showgrid="true"
   inkscape:zoom="1.9758842"
   inkscape:cx="153.93302"
   inkscape:cy="133.76493"
   inkscape:window-x="-8"
   inkscape:window-y="-8"
   inkscape:window-maximized="1"
   inkscape:current-layer="Layer_1"><inkscape:grid
     type="xygrid"
     id="grid4570" /></sodipodi:namedview>

<g
   id="g4559"
   transform="translate(-30,-41.5)"
   style="fill:#f9f9f9">
	<path
   d="m 278.8,149.7 c 0,2.2 -0.3,3.7 -1.8,3.7 -1.5,0 -1.8,-1.5 -1.8,-3.9 0,-2.8 0.4,-3.8 1.6,-3.8 1.7,0 2,1.5 2,4 z m 0,5.1 h 2 V 141 h -2.1 v 4.6 0 c -0.4,-0.9 -1.2,-1.5 -2.4,-1.5 -1.6,0 -3.2,0.7 -3.2,5.3 0,3.6 1,5.6 3.4,5.6 1.5,0 2,-0.9 2.3,-1.5 v 0 z m -9.4,-3.8 c 0,1.5 -0.6,2.5 -1.9,2.5 -0.9,0 -1.3,-0.7 -1.3,-1.6 0,-0.8 0.2,-1.4 0.9,-1.7 0.6,-0.3 1.8,-0.6 2.3,-1 z m 2,-4.4 c 0,-1.8 -1.5,-2.6 -3.3,-2.6 -2.8,0 -3.7,1.2 -3.7,3.4 h 2 c 0,-1 0.2,-2 1.6,-2 1.1,0 1.4,0.6 1.4,1.5 0,0.9 -0.5,1.1 -1.2,1.3 l -1.6,0.4 c -1.4,0.5 -2.4,0.9 -2.4,3.3 0,2 1.1,2.9 2.7,2.9 1.2,0 2,-0.5 2.6,-1.5 v 0 c 0.1,1 0.8,1.4 1.8,1.4 0.4,0 0.8,-0.1 1,-0.2 v -1.4 c -0.1,0 -0.2,0.1 -0.3,0.1 -0.3,0 -0.5,-0.3 -0.5,-0.7 v -5.9 z m -10.9,3.1 c 0,2.2 -0.3,3.7 -1.8,3.7 -1.5,0 -1.8,-1.5 -1.8,-3.9 0,-2.8 0.4,-3.8 1.6,-3.8 1.7,0 2,1.5 2,4 z m 0,5.1 h 2 V 141 h -2.1 v 4.6 0 c -0.4,-0.9 -1.2,-1.5 -2.4,-1.5 -1.6,0 -3.2,0.7 -3.2,5.3 0,3.6 1,5.6 3.4,5.6 1.5,0 2,-0.9 2.3,-1.5 v 0 z m -9.6,-11.9 h 2.1 v -2.1 h -2.1 z m 0,11.9 h 2.1 v -10.4 h -2.1 z m -6.2,0 h 2.1 v -6.2 c 0,-1.9 1.1,-2.4 2.1,-2.4 0.4,0 0.7,0.1 0.9,0.1 v -2.1 c -0.1,0 -0.3,-0.1 -0.5,-0.1 -1.2,0 -2,0.7 -2.4,1.9 v 0 -1.6 h -2.1 v 10.4 z m -4.1,-3.8 c 0,1.5 -0.6,2.5 -1.9,2.5 -0.9,0 -1.3,-0.7 -1.3,-1.6 0,-0.8 0.2,-1.4 0.9,-1.7 0.6,-0.3 1.8,-0.6 2.3,-1 z m 2,-4.4 c 0,-1.8 -1.5,-2.6 -3.3,-2.6 -2.8,0 -3.7,1.2 -3.7,3.4 h 2 c 0,-1 0.2,-2 1.6,-2 1.1,0 1.4,0.6 1.4,1.5 0,0.9 -0.5,1.1 -1.2,1.3 l -1.6,0.4 c -1.4,0.5 -2.4,0.9 -2.4,3.3 0,2 1.1,2.9 2.7,2.9 1.2,0 2,-0.5 2.6,-1.5 v 0 c 0.1,1 0.8,1.4 1.8,1.4 0.4,0 0.8,-0.1 1,-0.2 v -1.4 c -0.1,0 -0.2,0.1 -0.3,0.1 -0.3,0 -0.5,-0.3 -0.5,-0.7 v -5.9 z m -10.9,3.1 c 0,2.2 -0.3,3.7 -1.8,3.7 -1.5,0 -1.8,-1.5 -1.8,-3.9 0,-2.8 0.4,-3.8 1.6,-3.8 1.7,0 2,1.5 2,4 z m 0,5.1 h 2 V 141 h -2.1 v 4.6 0 c -0.4,-0.9 -1.2,-1.5 -2.4,-1.5 -1.6,0 -3.2,0.7 -3.2,5.3 0,3.6 1,5.6 3.4,5.6 1.5,0 2,-0.9 2.3,-1.5 v 0 z m -9.6,-11.9 h 2.1 v -2.1 h -2.1 z m 0,11.9 h 2.1 v -10.4 h -2.1 z m -4.3,0 h 2.1 V 141 h -2.1 z m -7.4,-5.2 c 0,-2.3 0.3,-3.9 1.8,-3.9 1.5,0 1.8,1.6 1.8,3.9 0,2.7 -0.3,3.9 -1.8,3.9 -1.5,0 -1.8,-1.3 -1.8,-3.9 z m -2.1,0 c 0,3.2 1,5.5 3.9,5.5 2.9,0 3.9,-2.2 3.9,-5.5 0,-3.2 -0.9,-5.5 -3.9,-5.5 -3,0 -3.9,2.2 -3.9,5.5 z m -10,0.9 v 0.3 c 0,1.9 0.8,4.2 4.2,4.2 2.8,0 4.6,-1.2 4.6,-4.2 0,-1.9 -0.8,-3 -2.8,-3.7 l -1.5,-0.5 c -1.5,-0.6 -2.1,-1.2 -2.1,-2.3 0,-1.5 0.9,-2 1.9,-2 1.4,0 1.9,0.7 1.9,2 v 0.3 h 2.2 v -0.3 c 0,-1.4 -0.4,-3.6 -3.9,-3.6 -2.6,0 -4.3,1.4 -4.3,3.9 0,2 0.9,3 2.9,3.8 l 1.5,0.5 c 1.2,0.4 2,1 2,2.5 0,1 -0.7,2 -2.1,2 -1.5,0 -2.3,-0.9 -2.3,-2.5 v -0.3 h -2.2 z m -11.5,-2.1 v -0.2 c 0,-1.4 0.4,-2.7 1.8,-2.7 1.2,0 1.6,1 1.6,2.3 v 0.6 z m 5.4,1.4 v -1.1 c 0,-2.9 -0.8,-4.6 -3.7,-4.6 -3.3,0 -3.9,2.9 -3.9,5.6 0,4.8 2.1,5.3 3.8,5.3 2.3,0 3.7,-1.4 3.7,-3.8 h -2 c 0,0.6 -0.2,2.3 -1.7,2.3 -1.6,0 -1.8,-1.8 -1.8,-3.2 v -0.6 h 5.6 z m -11.3,-0.1 c 0,2.2 -0.3,3.7 -1.8,3.7 -1.5,0 -1.8,-1.5 -1.8,-3.9 0,-2.8 0.4,-3.8 1.6,-3.8 1.8,0 2,1.5 2,4 z m 0,5.1 h 2 V 141 h -2.1 v 4.6 0 c -0.4,-0.9 -1.2,-1.5 -2.4,-1.5 -1.6,0 -3.2,0.7 -3.2,5.3 0,3.6 1,5.6 3.4,5.6 1.5,0 2,-0.9 2.3,-1.5 v 0 z M 164.6,143 h 1.4 l 2.1,-2.8 h -2.3 z m -0.8,5.4 v -0.2 c 0,-1.4 0.4,-2.7 1.8,-2.7 1.2,0 1.6,1 1.6,2.3 v 0.6 z m 5.4,1.4 v -1.1 c 0,-2.9 -0.8,-4.6 -3.7,-4.6 -3.3,0 -3.9,2.9 -3.9,5.6 0,4.8 2.1,5.3 3.8,5.3 2.3,0 3.7,-1.4 3.7,-3.8 h -2 c 0,0.6 -0.2,2.3 -1.7,2.3 -1.6,0 -1.8,-1.8 -1.8,-3.2 v -0.6 h 5.6 z m -13.6,-3.9 h 1.4 v 6.5 c 0,2.1 0.7,2.5 2.1,2.5 0.7,0 1.2,-0.1 1.7,-0.2 v -1.6 c -0.2,0 -0.4,0.1 -0.8,0.1 -0.7,0 -1,-0.3 -1,-1.1 v -6.2 h 1.7 v -1.6 H 159 v -3 h -2 v 3 h -1.4 z m -3.3,-3 h 2.1 v -2.1 h -2.1 z m 0,11.9 h 2.1 v -10.4 h -2.1 z m -14.4,0 h 2.1 v -7 c 0,-1.4 0.8,-2 1.7,-2 0.9,0 1.3,0.5 1.3,1.9 v 7.2 h 2.1 v -7 c 0,-1.4 0.8,-2 1.7,-2 0.9,0 1.3,0.5 1.3,1.9 v 7.2 h 2.1 v -7.9 c 0,-2 -1.1,-2.8 -2.5,-2.8 -1.3,0 -2,0.6 -2.6,1.6 -0.3,-0.9 -0.9,-1.6 -2.4,-1.6 -1,0 -2,0.6 -2.5,1.5 h -0.1 v -1.2 h -2 v 10.2 z m -7.4,-5.2 c 0,-2.3 0.3,-3.9 1.8,-3.9 1.5,0 1.8,1.6 1.8,3.9 0,2.7 -0.3,3.9 -1.8,3.9 -1.5,0 -1.8,-1.3 -1.8,-3.9 z m -2.1,0 c 0,3.2 1,5.5 3.9,5.5 2.9,0 3.9,-2.2 3.9,-5.5 0,-3.2 -0.9,-5.5 -3.9,-5.5 -3,0 -3.9,2.2 -3.9,5.5 z m -3.2,0.2 v 0.2 c 0,1.3 -0.2,3.3 -2.1,3.3 -1.6,0 -2.4,-1.1 -2.4,-5.6 0,-4.5 0.7,-5.5 2.4,-5.5 1.6,-0.1 2,1.4 2,2.7 v 0.2 h 2.2 V 145 c 0,-1.4 -0.2,-4.3 -4.2,-4.3 -3.5,0 -4.6,2.2 -4.6,7.2 0,4.9 1.1,7.2 4.6,7.2 3.3,0 4.3,-2.4 4.3,-4.9 v -0.3 h -2.2 z m -20.5,5 h 2.1 v -7 c 0,-1.4 0.8,-2 1.7,-2 1.1,0 1.5,0.5 1.5,1.9 v 7.2 h 2.1 V 147 c 0,-2.1 -1,-2.8 -2.6,-2.8 -1.2,0 -2.2,0.6 -2.7,1.5 h -0.1 v -1.2 h -2 z M 98.2,143 h 1.4 l 2.1,-2.8 h -2.3 z m -0.8,6.6 c 0,-2.3 0.3,-3.9 1.8,-3.9 1.5,0 1.8,1.6 1.8,3.9 0,2.7 -0.3,3.9 -1.8,3.9 -1.5,0 -1.8,-1.3 -1.8,-3.9 z m -2.1,0 c 0,3.2 1,5.5 3.9,5.5 2.9,0 3.9,-2.2 3.9,-5.5 0,-3.2 -0.9,-5.5 -3.9,-5.5 -3,0 -3.9,2.2 -3.9,5.5 z m -3.8,-6.7 h 2.1 v -2.1 h -2.1 z m 0,11.9 h 2.1 V 144.4 H 91.5 Z M 87.9,151 c 0,1.6 -0.4,2.5 -1.6,2.5 -1.5,0 -1.8,-1.6 -1.8,-3.9 0,-2.3 0.3,-3.9 1.8,-3.9 1.2,0 1.5,1.2 1.5,2.2 h 2.1 c 0,-1.3 -0.5,-3.8 -3.6,-3.7 -3,0 -3.9,2.2 -3.9,5.5 0,3.2 0.9,5.5 3.9,5.5 2.6,0 3.4,-1.6 3.6,-4.1 h -2 z m -9.2,0 c 0,1.5 -0.6,2.5 -1.9,2.5 -0.9,0 -1.3,-0.7 -1.3,-1.6 0,-0.8 0.2,-1.4 0.8,-1.7 0.6,-0.3 1.8,-0.6 2.3,-1 v 1.8 z m 2,-4.4 c 0,-1.8 -1.5,-2.6 -3.3,-2.6 -2.8,0 -3.7,1.2 -3.7,3.4 h 2 c 0,-1 0.2,-2 1.6,-2 1.1,0 1.4,0.6 1.4,1.5 0,0.9 -0.5,1.1 -1.2,1.3 l -1.6,0.4 c -1.4,0.5 -2.4,0.9 -2.4,3.3 0,2 1,2.9 2.7,2.9 1.2,0 2,-0.5 2.6,-1.5 v 0 c 0.1,1 0.8,1.4 1.8,1.4 0.4,0 0.8,-0.1 1,-0.2 v -1.4 c -0.1,0 -0.2,0.1 -0.3,0.1 -0.3,0 -0.5,-0.3 -0.5,-0.7 v -5.9 z m -10.9,3.1 c 0,2.2 -0.3,3.7 -1.8,3.7 -1.5,0 -1.8,-1.5 -1.8,-3.9 0,-2.8 0.4,-3.8 1.6,-3.8 1.7,0 2,1.5 2,4 z m 0,5.1 h 2 V 141 h -2.1 v 4.6 0 c -0.4,-0.9 -1.2,-1.5 -2.4,-1.5 -1.6,0 -3.2,0.7 -3.2,5.3 0,3.6 1,5.6 3.4,5.6 1.5,0 2,-0.9 2.3,-1.5 v 0 z m -14.7,0 h 2.1 v -7 c 0,-1.4 0.8,-2 1.7,-2 1.1,0 1.5,0.5 1.5,1.9 v 7.2 h 2.1 V 147 c 0,-2.1 -1,-2.8 -2.6,-2.8 -1.2,0 -2.2,0.6 -2.7,1.5 v 0 -1.2 h -2 v 10.3 z m -4,0 h 2 V 144.4 H 51 v 7.3 c 0,1.2 -0.8,1.8 -1.7,1.8 -0.9,0 -1.4,-0.4 -1.4,-1.6 v -7.5 h -2.1 v 7.3 c 0,2.7 1,3.4 2.6,3.4 1.2,0 2.2,-0.6 2.7,-1.5 h 0.1 v 1.2 z m -14.2,0 h 2.2 v -6.3 H 44 v -1.9 h -4.9 v -3.8 h 5.2 v -1.9 h -7.4 z"
   id="path4545"
   inkscape:connector-curvature="0"
   style="clip-rule:evenodd;fill:#f9f9f9;fill-rule:evenodd" />
	<path
   d="m 245.9,167.3 v -0.5 c 0,-1.3 -0.6,-2.9 -3.3,-2.9 -2.2,0 -3.6,0.9 -3.6,2.9 0,1.7 0.7,2.5 2.2,3 l 1.7,0.6 c 0.7,0.2 1.1,0.8 1.1,1.5 0,1 -0.6,1.5 -1.7,1.5 -1.2,0 -1.6,-0.7 -1.6,-1.9 v -0.3 H 239 v 0.4 c 0,2 0.8,3.2 3.4,3.2 2.1,0 3.8,-0.9 3.8,-3.2 0,-1.7 -0.7,-2.5 -2.3,-3 l -1.3,-0.5 c -1.1,-0.4 -1.5,-0.7 -1.5,-1.5 0,-1 0.7,-1.4 1.5,-1.4 1.1,0 1.4,0.8 1.4,1.6 v 0.3 h 1.9 z m -13.8,2.2 c 0,-2.3 0.3,-3.9 1.8,-3.9 1.5,0 1.8,1.6 1.8,3.9 0,2.7 -0.3,3.9 -1.8,3.9 -1.5,0 -1.8,-1.3 -1.8,-3.9 z m -2.1,0 c 0,3.2 1,5.5 3.9,5.5 2.9,0 3.9,-2.2 3.9,-5.5 0,-3.2 -0.9,-5.5 -3.9,-5.5 -3,0 -3.9,2.2 -3.9,5.5 z m -3.1,1.4 c 0,1.6 -0.4,2.5 -1.6,2.5 -1.5,0 -1.8,-1.6 -1.8,-3.9 0,-2.3 0.3,-3.9 1.8,-3.9 1.2,0 1.5,1.2 1.5,2.2 h 2.1 c 0,-1.3 -0.5,-3.8 -3.6,-3.8 -3,0 -3.9,2.2 -3.9,5.5 0,3.2 0.9,5.5 3.9,5.5 2.6,0 3.4,-1.6 3.6,-4.1 z m -9.3,-8.1 h 2.1 v -2.1 h -2.1 z m 0,11.9 h 2.1 v -10.4 h -2.1 z m -6.5,-8.9 h 1.4 v 6.5 c 0,2.1 0.7,2.5 2.1,2.5 0.7,0 1.2,-0.1 1.7,-0.2 v -1.5 c -0.2,0 -0.4,0.1 -0.8,0.1 -0.7,0 -1,-0.3 -1,-1.1 v -6.2 h 1.7 v -1.6 h -1.7 v -3 h -2.1 v 3 H 211 v 1.5 z m -3.3,-2.9 h 1.4 l 2.1,-2.8 H 209 Z m 0.1,11.8 h 2.1 v -10.4 h -2.1 z m -4.4,0 h 2.1 v -13.9 h -2.1 z m -7.4,-5.2 c 0,-2.3 0.3,-3.9 1.8,-3.9 1.5,0 1.8,1.6 1.8,3.9 0,2.7 -0.3,3.9 -1.8,3.9 -1.5,0 -1.8,-1.3 -1.8,-3.9 z m -2.1,0 c 0,3.2 1,5.5 3.9,5.5 2.9,0 3.9,-2.2 3.9,-5.5 0,-3.2 -0.9,-5.5 -3.9,-5.5 -3,0 -3.9,2.2 -3.9,5.5 z m -9.1,5.2 h 2.2 V 169 h 1.9 c 2.6,0 4.1,-1.6 4.1,-4.1 0,-2.4 -1.2,-4 -3.8,-4 h -4.4 z m 2.2,-12.2 h 1.4 c 1.8,0 2.4,0.9 2.4,2.4 0,1.7 -1,2.4 -2.2,2.4 h -1.6 z m -8.8,4.8 v -0.5 c 0,-1.3 -0.6,-2.9 -3.3,-2.9 -2.2,0 -3.6,0.9 -3.6,2.9 0,1.7 0.7,2.5 2.2,3 l 1.7,0.6 c 0.7,0.2 1.1,0.8 1.1,1.5 0,1 -0.6,1.5 -1.7,1.5 -1.2,0 -1.6,-0.7 -1.6,-1.9 v -0.3 h -1.9 v 0.4 c 0,2 0.8,3.2 3.4,3.2 2.1,0 3.8,-0.9 3.8,-3.2 0,-1.7 -0.7,-2.5 -2.3,-3 l -1.3,-0.5 c -1.1,-0.4 -1.5,-0.7 -1.5,-1.5 0,-1 0.7,-1.4 1.5,-1.4 1.1,0 1.4,0.8 1.4,1.6 v 0.3 h 2.1 z m -13.8,2.2 c 0,-2.3 0.3,-3.9 1.8,-3.9 1.5,0 1.8,1.6 1.8,3.9 0,2.7 -0.3,3.9 -1.8,3.9 -1.6,0 -1.8,-1.3 -1.8,-3.9 z m -2.1,0 c 0,3.2 1,5.5 3.9,5.5 2.9,0 3.9,-2.2 3.9,-5.5 0,-3.2 -0.9,-5.5 -3.9,-5.5 -3.1,0 -3.9,2.2 -3.9,5.5 z m -1.4,-2.2 v -0.5 c 0,-1.3 -0.6,-2.9 -3.3,-2.9 -2.1,0 -3.6,0.9 -3.6,2.9 0,1.7 0.7,2.5 2.2,3 l 1.7,0.6 c 0.7,0.2 1.2,0.8 1.2,1.5 0,1 -0.6,1.5 -1.7,1.5 -1.2,0 -1.6,-0.7 -1.6,-1.9 v -0.3 H 154 v 0.4 c 0,2 0.8,3.2 3.4,3.2 2.1,0 3.8,-0.9 3.8,-3.2 0,-1.7 -0.7,-2.5 -2.3,-3 l -1.3,-0.5 c -1.1,-0.4 -1.5,-0.7 -1.5,-1.5 0,-1 0.7,-1.4 1.5,-1.4 1.1,0 1.4,0.8 1.4,1.6 v 0.3 h 2 z m -13.7,1 v -0.2 c 0,-1.4 0.4,-2.7 1.8,-2.7 1.2,0 1.6,1 1.6,2.3 v 0.6 z m 5.5,1.5 v -1.1 c 0,-2.9 -0.8,-4.7 -3.7,-4.7 -3.3,0 -3.9,2.9 -3.9,5.6 0,4.8 2.1,5.3 3.8,5.3 2.3,0 3.7,-1.4 3.7,-3.8 h -2 c 0,0.6 -0.2,2.3 -1.7,2.3 -1.6,0 -1.8,-1.8 -1.8,-3.2 v -0.6 h 5.6 z m -13.3,4.9 h 2.1 v -6.2 c 0,-1.9 1.2,-2.4 2.1,-2.4 0.3,0 0.7,0.1 0.9,0.1 v -2.1 c -0.1,0 -0.3,-0.1 -0.5,-0.1 -1.2,0 -2,0.7 -2.4,1.9 v 0 -1.6 h -2.1 v 10.4 z m -9.6,0 h 2.2 V 169 h 2 c 2.6,0 4.1,-1.6 4.1,-4.1 0,-2.4 -1.2,-4 -3.8,-4 H 130 v 13.8 z m 2.2,-12.2 h 1.4 c 1.8,0 2.4,0.9 2.4,2.4 0,1.7 -1,2.4 -2.2,2.4 h -1.6 z m -8.8,4.8 v -0.5 c 0,-1.3 -0.6,-2.9 -3.3,-2.9 -2.2,0 -3.6,0.9 -3.6,2.9 0,1.7 0.7,2.5 2.2,3 l 1.7,0.6 c 0.7,0.2 1.2,0.8 1.2,1.5 0,1 -0.6,1.5 -1.7,1.5 -1.2,0 -1.6,-0.7 -1.6,-1.9 v -0.3 h -1.9 v 0.4 c 0,2 0.8,3.2 3.4,3.2 2.1,0 3.8,-0.9 3.8,-3.2 0,-1.7 -0.7,-2.5 -2.3,-3 l -1.3,-0.5 c -1.1,-0.4 -1.5,-0.7 -1.5,-1.5 0,-1 0.7,-1.4 1.5,-1.4 1.1,0 1.4,0.8 1.4,1.6 v 0.3 h 2 z m -13.8,2.2 c 0,-2.3 0.3,-3.9 1.8,-3.9 1.5,0 1.8,1.6 1.8,3.9 0,2.7 -0.3,3.9 -1.8,3.9 -1.5,0 -1.8,-1.3 -1.8,-3.9 z m -2.1,0 c 0,3.2 1,5.5 3.9,5.5 2.9,0 3.9,-2.2 3.9,-5.5 0,-3.2 -0.9,-5.5 -3.9,-5.5 -3,0 -3.9,2.2 -3.9,5.5 z m -3.8,5.2 h 2.1 v -13.9 h -2.1 z m -14.1,0 h 2.1 v -7 c 0,-1.4 0.8,-2 1.7,-2 1,0 1.5,0.5 1.5,1.9 v 7.2 h 2.1 v -7.9 c 0,-2.1 -1,-2.8 -2.6,-2.8 -1.2,0 -2.2,0.6 -2.7,1.5 h -0.1 v -1.2 h -2 z m -7.3,-5.2 c 0,-2.3 0.3,-3.9 1.8,-3.9 1.5,0 1.8,1.6 1.8,3.9 0,2.7 -0.3,3.9 -1.8,3.9 -1.6,0 -1.8,-1.3 -1.8,-3.9 z m -2.1,0 c 0,3.2 1,5.5 3.9,5.5 2.9,0 3.9,-2.2 3.9,-5.5 0,-3.2 -0.9,-5.5 -3.9,-5.5 -3.1,0 -3.9,2.2 -3.9,5.5 z m -3.2,1.4 c 0,1.6 -0.4,2.5 -1.6,2.5 -1.5,0 -1.8,-1.6 -1.8,-3.9 0,-2.3 0.3,-3.9 1.8,-3.9 1.2,0 1.5,1.2 1.5,2.2 h 2.1 c 0,-1.3 -0.5,-3.8 -3.6,-3.8 -3,0 -3.9,2.2 -3.9,5.5 0,3.2 0.9,5.5 3.9,5.5 2.6,0 3.4,-1.6 3.6,-4.1 z"
   id="path4547"
   inkscape:connector-curvature="0"
   style="clip-rule:evenodd;fill:#f9f9f9;fill-rule:evenodd" />
	<path
   d="M 72.3,108.2 C 59.4,107.7 49,96.6 49,83.6 49,70.6 59.4,59.5 72.3,59 H 84.5 V 43 H 72.8 C 50.6,43.1 33,61.5 33,83.6 c 0,22.1 17.8,40.5 39.8,40.5 h 11.7 v -16 H 72.3 Z"
   id="path4549"
   inkscape:connector-curvature="0"
   style="fill:#f9f9f9" />
	<path
   d="m 194.8,66.3 c 0,-12.8 -10.4,-23.2 -23.3,-23.2 -0.2,0 -0.3,0 -0.5,0 v 0 H 141 V 59 h 30 c 4,0.1 7.2,3.3 7.2,7.3 0,4 -3.2,7.2 -7.2,7.3 h -30 v 15.9 32.4 h 16 V 89.5 h 14.5 c 12.9,0 23.3,-10.4 23.3,-23.2 z"
   id="path4551"
   inkscape:connector-curvature="0"
   style="fill:#f9f9f9" />
	<path
   d="M 259.1,66.2 C 259.1,53.4 248.7,43 235.8,43 c -0.2,0 -0.3,0 -0.5,0 v 0 h -30 v 15.9 h 30 c 4,0.1 7.2,3.3 7.2,7.3 0,4 -3.2,7.2 -7.2,7.3 h -30 v 15.9 28.4 h 16 V 89.4 h 14.5 c 12.9,0 23.3,-10.4 23.3,-23.2 z"
   id="path4553"
   inkscape:connector-curvature="0"
   style="fill:#f9f9f9" />
	<rect
   x="141"
   y="120.9"
   width="141"
   height="3.2"
   id="rect4555"
   style="fill:#f9f9f9" />
	<path
   d="m 127.5,59 h 2.9 V 43 H 123 c -19.5,0.1 -28,9 -28,23.4 0,7.6 4.6,12.8 9.1,17.9 4.5,5.1 10.4,10.9 10.4,15.7 v 0.1 c 0,0.1 0,0.2 0,0.2 0,4 -3.1,7.3 -7,7.7 v 0.1 H 106.7 95 v 16 h 8.7 v 0 c 10.2,0 14.9,-2.8 20.3,-7.9 4.3,-4.2 6.5,-10.2 6.5,-17.1 0,-8.6 -5.2,-12.8 -10.1,-19 -5.1,-6.5 -7.7,-9.3 -8.8,-11.6 -0.1,-0.1 -0.1,-0.2 -0.2,-0.3 -0.3,-0.8 -0.5,-1.6 -0.5,-2.4 v 0 0 c 0,-0.4 0,-0.7 0.1,-1 0.5,-3.2 3.2,-5.6 6.6,-5.6 z"
   id="path4557"
   inkscape:connector-curvature="0"
   style="fill:#f9f9f9" />
</g>
</svg>